0
SECTION
2
HEADER
9
$ANGDIR
70
1
9
$AUNITS
70
0
9
$PROJECTNAME
1
motorController
9
$TDCREATE
40
2459232.18480528
9
$INSUNITS
70
4
0
ENDSEC
0
SECTION
2
ENTITIES
0
POLYLINE
66
1
8
outline
10
0.0
20
0.0
30
0.0
70
1
0
VERTEX
8
0
10
5
20
28.75
30
0
0
VERTEX
8
0
10
5.0600000000000005
20
11.31
30
0
0
VERTEX
8
0
10
55
20
11.25
30
0
0
VERTEX
8
0
10
55
20
28.75
30
0
0
VERTEX
8
0
10
5
20
28.75
30
0
0
SEQEND
0
POLYLINE
66
1
8
holes
10
0.0
20
0.0
30
0.0
70
1
0
VERTEX
8
0
10
5
20
28.75
30
0
0
VERTEX
8
0
10
5.0600000000000005
20
11.31
30
0
0
VERTEX
8
0
10
55
20
11.25
30
0
0
VERTEX
8
0
10
55
20
28.75
30
0
0
VERTEX
8
0
10
5
20
28.75
30
0
0
SEQEND
0
POLYLINE
66
1
8
holes
10
0.0
20
0.0
30
0.0
70
1
0
VERTEX
8
0
10
8.925
20
24.9827625
30
0
0
VERTEX
8
0
10
8.918275000000001
20
24.948953125000003
30
0
0
VERTEX
8
0
10
8.905084375000001
20
24.91710625
30
0
0
VERTEX
8
0
10
8.88593125
20
24.88844375
30
0
0
VERTEX
8
0
10
8.86155625
20
24.86406875
30
0
0
VERTEX
8
0
10
8.83289375
20
24.844915625000002
30
0
0
VERTEX
8
0
10
8.801046875
20
24.831725000000002
30
0
0
VERTEX
8
0
10
8.7672375
20
24.825000000000003
30
0
0
VERTEX
8
0
10
8.7327625
20
24.825000000000003
30
0
0
VERTEX
8
0
10
8.698953125000001
20
24.831725000000002
30
0
0
VERTEX
8
0
10
8.66710625
20
24.844915625000002
30
0
0
VERTEX
8
0
10
8.63844375
20
24.86406875
30
0
0
VERTEX
8
0
10
8.614068750000001
20
24.88844375
30
0
0
VERTEX
8
0
10
8.594915625
20
24.91710625
30
0
0
VERTEX
8
0
10
8.581725
20
24.948953125000003
30
0
0
VERTEX
8
0
10
8.575000000000001
20
24.9827625
30
0
0
VERTEX
8
0
10
8.575000000000001
20
25.0172375
30
0
0
VERTEX
8
0
10
8.581725
20
25.051046875
30
0
0
VERTEX
8
0
10
8.594915625
20
25.08289375
30
0
0
VERTEX
8
0
10
8.614068750000001
20
25.11155625
30
0
0
VERTEX
8
0
10
8.63844375
20
25.135931250000002
30
0
0
VERTEX
8
0
10
8.66710625
20
25.155084375
30
0
0
VERTEX
8
0
10
8.698953125000001
20
25.168275
30
0
0
VERTEX
8
0
10
8.7327625
20
25.175
30
0
0
VERTEX
8
0
10
8.7672375
20
25.175
30
0
0
VERTEX
8
0
10
8.801046875
20
25.168275
30
0
0
VERTEX
8
0
10
8.83289375
20
25.155084375
30
0
0
VERTEX
8
0
10
8.86155625
20
25.135931250000002
30
0
0
VERTEX
8
0
10
8.88593125
20
25.11155625
30
0
0
VERTEX
8
0
10
8.905084375000001
20
25.08289375
30
0
0
VERTEX
8
0
10
8.918275000000001
20
25.051046875
30
0
0
VERTEX
8
0
10
8.925
20
25.0172375
30
0
0
VERTEX
8
0
10
8.925
20
24.9827625
30
0
0
SEQEND
0
POLYLINE
66
1
8
holes
10
0.0
20
0.0
30
0.0
70
1
0
VERTEX
8
0
10
8.925
20
14.982762500000002
30
0
0
VERTEX
8
0
10
8.918275000000001
20
14.948953125000001
30
0
0
VERTEX
8
0
10
8.905084375000001
20
14.917106250000002
30
0
0
VERTEX
8
0
10
8.88593125
20
14.88844375
30
0
0
VERTEX
8
0
10
8.86155625
20
14.864068750000001
30
0
0
VERTEX
8
0
10
8.83289375
20
14.844915625
30
0
0
VERTEX
8
0
10
8.801046875
20
14.831725
30
0
0
VERTEX
8
0
10
8.7672375
20
14.825000000000001
30
0
0
VERTEX
8
0
10
8.7327625
20
14.825000000000001
30
0
0
VERTEX
8
0
10
8.698953125000001
20
14.831725
30
0
0
VERTEX
8
0
10
8.66710625
20
14.844915625
30
0
0
VERTEX
8
0
10
8.63844375
20
14.864068750000001
30
0
0
VERTEX
8
0
10
8.614068750000001
20
14.88844375
30
0
0
VERTEX
8
0
10
8.594915625
20
14.917106250000002
30
0
0
VERTEX
8
0
10
8.581725
20
14.948953125000001
30
0
0
VERTEX
8
0
10
8.575000000000001
20
14.982762500000002
30
0
0
VERTEX
8
0
10
8.575000000000001
20
15.0172375
30
0
0
VERTEX
8
0
10
8.581725
20
15.051046875
30
0
0
VERTEX
8
0
10
8.594915625
20
15.08289375
30
0
0
VERTEX
8
0
10
8.614068750000001
20
15.111556250000001
30
0
0
VERTEX
8
0
10
8.63844375
20
15.13593125
30
0
0
VERTEX
8
0
10
8.66710625
20
15.155084375000001
30
0
0
VERTEX
8
0
10
8.698953125000001
20
15.168275000000001
30
0
0
VERTEX
8
0
10
8.7327625
20
15.175
30
0
0
VERTEX
8
0
10
8.7672375
20
15.175
30
0
0
VERTEX
8
0
10
8.801046875
20
15.168275000000001
30
0
0
VERTEX
8
0
10
8.83289375
20
15.155084375000001
30
0
0
VERTEX
8
0
10
8.86155625
20
15.13593125
30
0
0
VERTEX
8
0
10
8.88593125
20
15.111556250000001
30
0
0
VERTEX
8
0
10
8.905084375000001
20
15.08289375
30
0
0
VERTEX
8
0
10
8.918275000000001
20
15.051046875
30
0
0
VERTEX
8
0
10
8.925
20
15.0172375
30
0
0
VERTEX
8
0
10
8.925
20
14.982762500000002
30
0
0
SEQEND
0
POLYLINE
66
1
8
holes
10
0.0
20
0.0
30
0.0
70
1
0
VERTEX
8
0
10
51.425000000000004
20
14.982762500000002
30
0
0
VERTEX
8
0
10
51.418275
20
14.948953125000001
30
0
0
VERTEX
8
0
10
51.405084375
20
14.917106250000002
30
0
0
VERTEX
8
0
10
51.385931250000006
20
14.88844375
30
0
0
VERTEX
8
0
10
51.36155625
20
14.864068750000001
30
0
0
VERTEX
8
0
10
51.332893750000004
20
14.844915625
30
0
0
VERTEX
8
0
10
51.301046875000004
20
14.831725
30
0
0
VERTEX
8
0
10
51.2672375
20
14.825000000000001
30
0
0
VERTEX
8
0
10
51.2327625
20
14.825000000000001
30
0
0
VERTEX
8
0
10
51.198953125
20
14.831725
30
0
0
VERTEX
8
0
10
51.16710625
20
14.844915625
30
0
0
VERTEX
8
0
10
51.13844375
20
14.864068750000001
30
0
0
VERTEX
8
0
10
51.11406875
20
14.88844375
30
0
0
VERTEX
8
0
10
51.094915625000006
20
14.917106250000002
30
0
0
VERTEX
8
0
10
51.081725000000006
20
14.948953125000001
30
0
0
VERTEX
8
0
10
51.075
20
14.982762500000002
30
0
0
VERTEX
8
0
10
51.075
20
15.0172375
30
0
0
VERTEX
8
0
10
51.081725000000006
20
15.051046875
30
0
0
VERTEX
8
0
10
51.094915625000006
20
15.08289375
30
0
0
VERTEX
8
0
10
51.11406875
20
15.111556250000001
30
0
0
VERTEX
8
0
10
51.13844375
20
15.13593125
30
0
0
VERTEX
8
0
10
51.16710625
20
15.155084375000001
30
0
0
VERTEX
8
0
10
51.198953125
20
15.168275000000001
30
0
0
VERTEX
8
0
10
51.2327625
20
15.175
30
0
0
VERTEX
8
0
10
51.2672375
20
15.175
30
0
0
VERTEX
8
0
10
51.301046875000004
20
15.168275000000001
30
0
0
VERTEX
8
0
10
51.332893750000004
20
15.155084375000001
30
0
0
VERTEX
8
0
10
51.36155625
20
15.13593125
30
0
0
VERTEX
8
0
10
51.385931250000006
20
15.111556250000001
30
0
0
VERTEX
8
0
10
51.405084375
20
15.08289375
30
0
0
VERTEX
8
0
10
51.418275
20
15.051046875
30
0
0
VERTEX
8
0
10
51.425000000000004
20
15.0172375
30
0
0
VERTEX
8
0
10
51.425000000000004
20
14.982762500000002
30
0
0
SEQEND
0
POLYLINE
66
1
8
holes
10
0.0
20
0.0
30
0.0
70
1
0
VERTEX
8
0
10
51.425000000000004
20
24.9827625
30
0
0
VERTEX
8
0
10
51.418275
20
24.948953125000003
30
0
0
VERTEX
8
0
10
51.405084375
20
24.91710625
30
0
0
VERTEX
8
0
10
51.385931250000006
20
24.88844375
30
0
0
VERTEX
8
0
10
51.36155625
20
24.86406875
30
0
0
VERTEX
8
0
10
51.332893750000004
20
24.844915625000002
30
0
0
VERTEX
8
0
10
51.301046875000004
20
24.831725000000002
30
0
0
VERTEX
8
0
10
51.2672375
20
24.825000000000003
30
0
0
VERTEX
8
0
10
51.2327625
20
24.825000000000003
30
0
0
VERTEX
8
0
10
51.198953125
20
24.831725000000002
30
0
0
VERTEX
8
0
10
51.16710625
20
24.844915625000002
30
0
0
VERTEX
8
0
10
51.13844375
20
24.86406875
30
0
0
VERTEX
8
0
10
51.11406875
20
24.88844375
30
0
0
VERTEX
8
0
10
51.094915625000006
20
24.91710625
30
0
0
VERTEX
8
0
10
51.081725000000006
20
24.948953125000003
30
0
0
VERTEX
8
0
10
51.075
20
24.9827625
30
0
0
VERTEX
8
0
10
51.075
20
25.0172375
30
0
0
VERTEX
8
0
10
51.081725000000006
20
25.051046875
30
0
0
VERTEX
8
0
10
51.094915625000006
20
25.08289375
30
0
0
VERTEX
8
0
10
51.11406875
20
25.11155625
30
0
0
VERTEX
8
0
10
51.13844375
20
25.135931250000002
30
0
0
VERTEX
8
0
10
51.16710625
20
25.155084375
30
0
0
VERTEX
8
0
10
51.198953125
20
25.168275
30
0
0
VERTEX
8
0
10
51.2327625
20
25.175
30
0
0
VERTEX
8
0
10
51.2672375
20
25.175
30
0
0
VERTEX
8
0
10
51.301046875000004
20
25.168275
30
0
0
VERTEX
8
0
10
51.332893750000004
20
25.155084375
30
0
0
VERTEX
8
0
10
51.36155625
20
25.135931250000002
30
0
0
VERTEX
8
0
10
51.385931250000006
20
25.11155625
30
0
0
VERTEX
8
0
10
51.405084375
20
25.08289375
30
0
0
VERTEX
8
0
10
51.418275
20
25.051046875
30
0
0
VERTEX
8
0
10
51.425000000000004
20
25.0172375
30
0
0
VERTEX
8
0
10
51.425000000000004
20
24.9827625
30
0
0
SEQEND
0
POLYLINE
66
1
8
1_copper
10
0.0
20
0.0
30
0.0
70
1
0
VERTEX
8
0
10
44.766000000000005
20
14.766
30
0
0
VERTEX
8
0
10
42.734
20
14.766
30
0
0
VERTEX
8
0
10
42.734
20
12.734
30
0
0
VERTEX
8
0
10
44.766000000000005
20
12.734
30
0
0
SEQEND
0
POLYLINE
66
1
8
16_copper
10
0.0
20
0.0
30
0.0
70
1
0
VERTEX
8
0
10
44.766000000000005
20
14.766
30
0
0
VERTEX
8
0
10
42.734
20
14.766
30
0
0
VERTEX
8
0
10
42.734
20
14.258000000000001
30
0
0
VERTEX
8
0
10
42.71041875
20
14.258000000000001
30
0
0
VERTEX
8
0
10
39.088
20
17.88041875
30
0
0
VERTEX
8
0
10
39.088
20
19.490000000000002
30
0
0
VERTEX
8
0
10
39.0868125
20
19.51138125
30
0
0
VERTEX
8
0
10
39.08619375
20
19.532796875000003
30
0
42
0.13956369316960346
0
VERTEX
8
0
10
38.9877625
20
19.792975000000002
30
0
0
VERTEX
8
0
10
38.9841125
20
19.797203125
30
0
0
VERTEX
8
0
10
38.979565625
20
19.80370625
30
0
0
VERTEX
8
0
10
38.942378125000005
20
19.8460125
30
0
0
VERTEX
8
0
10
38.940465625
20
19.84775625
30
0
0
VERTEX
8
0
10
38.939209375000004
20
19.849209375
30
0
0
VERTEX
8
0
10
37.009209375000005
20
21.779209375
30
0
0
VERTEX
8
0
10
36.9932625
20
21.793478125
30
0
0
VERTEX
8
0
10
36.97766875
20
21.808196875
30
0
42
0.1395618413384444
0
VERTEX
8
0
10
36.724096875
20
21.92256875
30
0
0
VERTEX
8
0
10
36.718506250000004
20
21.922978125
30
0
0
VERTEX
8
0
10
36.710709375
20
21.924359375
30
0
0
VERTEX
8
0
10
36.654503125000005
20
21.927981250000002
30
0
0
VERTEX
8
0
10
36.65190625
20
21.927859375
30
0
0
VERTEX
8
0
10
36.65
20
21.928
30
0
0
VERTEX
8
0
10
34.15
20
21.928
30
0
0
VERTEX
8
0
10
34.093762500000004
20
21.924878125
30
0
42
0.8789627495303876
0
VERTEX
8
0
10
34.075903125
20
20.91743125
30
0
0
VERTEX
8
0
10
34.15
20
20.912000000000003
30
0
0
VERTEX
8
0
10
36.43958125
20
20.912000000000003
30
0
0
VERTEX
8
0
10
38.072
20
19.27958125
30
0
0
VERTEX
8
0
10
38.072
20
17.67
30
0
0
VERTEX
8
0
10
38.0731875
20
17.64861875
30
0
0
VERTEX
8
0
10
38.073806250000004
20
17.627203125
30
0
42
0.13956369316960346
0
VERTEX
8
0
10
38.1722375
20
17.367025
30
0
0
VERTEX
8
0
10
38.1758875
20
17.362796875
30
0
0
VERTEX
8
0
10
38.180434375000004
20
17.356293750000003
30
0
0
VERTEX
8
0
10
38.217621875
20
17.3139875
30
0
0
VERTEX
8
0
10
38.219534375
20
17.31224375
30
0
0
VERTEX
8
0
10
38.220790625
20
17.310790625
30
0
0
VERTEX
8
0
10
42.140790625
20
13.390790625000001
30
0
0
VERTEX
8
0
10
42.156737500000006
20
13.376521875
30
0
0
VERTEX
8
0
10
42.17233125
20
13.361803125
30
0
42
0.1395618413384444
0
VERTEX
8
0
10
42.425903125000005
20
13.24743125
30
0
0
VERTEX
8
0
10
42.43149375
20
13.247021875000002
30
0
0
VERTEX
8
0
10
42.439290625000005
20
13.245640625
30
0
0
VERTEX
8
0
10
42.495496875
20
13.242018750000002
30
0
0
VERTEX
8
0
10
42.49809375
20
13.242140625000001
30
0
0
VERTEX
8
0
10
42.5
20
13.242
30
0
0
VERTEX
8
0
10
42.734
20
13.242
30
0
0
VERTEX
8
0
10
42.734
20
12.734
30
0
0
VERTEX
8
0
10
44.766000000000005
20
12.734
30
0
0
SEQEND
0
POLYLINE
66
1
8
1_copper
10
0.0
20
0.0
30
0.0
70
1
0
VERTEX
8
0
10
33.516
20
14.766
30
0
0
VERTEX
8
0
10
31.484
20
14.766
30
0
0
VERTEX
8
0
10
31.484
20
12.734
30
0
0
VERTEX
8
0
10
33.516
20
12.734
30
0
0
SEQEND
0
POLYLINE
66
1
8
16_copper
10
0.0
20
0.0
30
0.0
70
1
0
VERTEX
8
0
10
33.516
20
14.766
30
0
0
VERTEX
8
0
10
33.065590625
20
14.766
30
0
0
VERTEX
8
0
10
33.277209375
20
18.551646875
30
0
0
VERTEX
8
0
10
33.277228125
20
18.607971875
30
0
42
0.8789614516419995
0
VERTEX
8
0
10
32.272353125
20
18.68203125
30
0
0
VERTEX
8
0
10
32.262790625
20
18.608353125
30
0
0
VERTEX
8
0
10
32.048
20
14.766
30
0
0
VERTEX
8
0
10
31.484
20
14.766
30
0
0
VERTEX
8
0
10
31.484
20
12.734
30
0
0
VERTEX
8
0
10
33.516
20
12.734
30
0
0
SEQEND
0
POLYLINE
66
1
8
1_copper
10
0.0
20
0.0
30
0.0
70
1
0
VERTEX
8
0
10
25.399800000000003
20
19.5198
30
0
0
VERTEX
8
0
10
23.520200000000003
20
19.5198
30
0
0
VERTEX
8
0
10
23.520200000000003
20
17.6402
30
0
0
VERTEX
8
0
10
25.399800000000003
20
17.6402
30
0
0
SEQEND
0
POLYLINE
66
1
8
1_copper
10
0.0
20
0.0
30
0.0
70
1
0
VERTEX
8
0
10
22.266000000000002
20
14.766
30
0
0
VERTEX
8
0
10
20.234
20
14.766
30
0
0
VERTEX
8
0
10
20.234
20
12.734
30
0
0
VERTEX
8
0
10
22.266000000000002
20
12.734
30
0
0
SEQEND
0
POLYLINE
66
1
8
16_copper
10
0.0
20
0.0
30
0.0
70
1
0
VERTEX
8
0
10
22.266000000000002
20
14.360962500000001
30
0
0
VERTEX
8
0
10
24.44536875
20
17.6402
30
0
0
VERTEX
8
0
10
25.399800000000003
20
17.6402
30
0
0
VERTEX
8
0
10
25.399800000000003
20
19.5198
30
0
0
VERTEX
8
0
10
23.520200000000003
20
19.5198
30
0
0
VERTEX
8
0
10
23.520200000000003
20
18.083693750000002
30
0
0
VERTEX
8
0
10
21.315271875
20
14.766
30
0
0
VERTEX
8
0
10
20.234
20
14.766
30
0
0
VERTEX
8
0
10
20.234
20
12.734
30
0
0
VERTEX
8
0
10
22.266000000000002
20
12.734
30
0
0
SEQEND
0
POLYLINE
66
1
8
16_copper
10
0.0
20
0.0
30
0.0
70
1
0
VERTEX
8
0
10
38.813390625000004
20
13.245971875
30
0
42
0.5098141309021401
0
VERTEX
8
0
10
39.209571875
20
13.9664625
30
0
0
VERTEX
8
0
10
39.173084375
20
14.031181250000001
30
0
0
VERTEX
8
0
10
35.963084375
20
18.86118125
30
0
0
VERTEX
8
0
10
35.929356250000005
20
18.906290625
30
0
42
0.8789620641437498
0
VERTEX
8
0
10
35.080428125000005
20
18.3635375
30
0
0
VERTEX
8
0
10
35.116915625000004
20
18.298818750000002
30
0
0
VERTEX
8
0
10
38.326915625000005
20
13.46881875
30
0
0
VERTEX
8
0
10
38.36064375
20
13.423709375000001
30
0
42
0.22558079229546124
0
VERTEX
8
0
10
38.757200000000005
20
13.24205
30
0
0
SEQEND
0
POLYLINE
66
1
8
16_copper
10
0.0
20
0.0
30
0.0
70
1
0
VERTEX
8
0
10
27.530115625
20
13.24289375
30
0
42
0.22558131514129
0
VERTEX
8
0
10
27.912265625
20
13.453178125
30
0
0
VERTEX
8
0
10
27.951150000000002
20
13.5164875
30
0
0
VERTEX
8
0
10
30.451150000000002
20
18.346487500000002
30
0
0
VERTEX
8
0
10
30.474228125
20
18.397865625
30
0
42
0.8789622302816734
0
VERTEX
8
0
10
29.587734375
20
18.876821875
30
0
0
VERTEX
8
0
10
29.54885
20
18.8135125
30
0
0
VERTEX
8
0
10
27.04885
20
13.9835125
30
0
0
VERTEX
8
0
10
27.025771875
20
13.932134375
30
0
42
0.509814853176326
0
VERTEX
8
0
10
27.473790625000003
20
13.242675
30
0
0
SEQEND
0
POLYLINE
66
1
8
16_copper
10
0.0
20
0.0
30
0.0
70
1
0
VERTEX
8
0
10
17.52138125
20
13.243187500000001
30
0
0
VERTEX
8
0
10
17.542796875
20
13.24380625
30
0
42
0.13956369316960346
0
VERTEX
8
0
10
17.802975
20
13.342237500000001
30
0
0
VERTEX
8
0
10
17.807203125
20
13.3458875
30
0
0
VERTEX
8
0
10
17.81370625
20
13.350434375
30
0
0
VERTEX
8
0
10
17.856012500000002
20
13.387621875
30
0
0
VERTEX
8
0
10
17.85775625
20
13.389534375
30
0
0
VERTEX
8
0
10
17.859209375000002
20
13.390790625000001
30
0
0
VERTEX
8
0
10
21.609209375000002
20
17.140790625
30
0
0
VERTEX
8
0
10
21.623478125000002
20
17.156737500000002
30
0
0
VERTEX
8
0
10
21.638196875000002
20
17.17233125
30
0
42
0.1395618413384444
0
VERTEX
8
0
10
21.752568750000002
20
17.425903125
30
0
0
VERTEX
8
0
10
21.752978125000002
20
17.43149375
30
0
0
VERTEX
8
0
10
21.754359375
20
17.439290625
30
0
0
VERTEX
8
0
10
21.75798125
20
17.495496875
30
0
0
VERTEX
8
0
10
21.757859375000002
20
17.498093750000002
30
0
0
VERTEX
8
0
10
21.758000000000003
20
17.5
30
0
0
VERTEX
8
0
10
21.758000000000003
20
22.28958125
30
0
0
VERTEX
8
0
10
22.710418750000002
20
23.242
30
0
0
VERTEX
8
0
10
27.28958125
20
23.242
30
0
0
VERTEX
8
0
10
28.112000000000002
20
22.41958125
30
0
0
VERTEX
8
0
10
28.112000000000002
20
21.42
30
0
0
VERTEX
8
0
10
28.115121875
20
21.3637625
30
0
42
0.8789627495303876
0
VERTEX
8
0
10
29.122568750000003
20
21.345903125
30
0
0
VERTEX
8
0
10
29.128
20
21.42
30
0
0
VERTEX
8
0
10
29.128
20
22.630000000000003
30
0
0
VERTEX
8
0
10
29.1268125
20
22.65138125
30
0
0
VERTEX
8
0
10
29.126193750000002
20
22.672796875
30
0
42
0.13956369316960346
0
VERTEX
8
0
10
29.0277625
20
22.932975000000003
30
0
0
VERTEX
8
0
10
29.0241125
20
22.937203125
30
0
0
VERTEX
8
0
10
29.019565625000002
20
22.94370625
30
0
0
VERTEX
8
0
10
28.982378125
20
22.9860125
30
0
0
VERTEX
8
0
10
28.980465625
20
22.98775625
30
0
0
VERTEX
8
0
10
28.979209375
20
22.989209375
30
0
0
VERTEX
8
0
10
27.859209375000002
20
24.109209375000002
30
0
0
VERTEX
8
0
10
27.8432625
20
24.123478125000002
30
0
0
VERTEX
8
0
10
27.82766875
20
24.138196875000002
30
0
42
0.1395618413384444
0
VERTEX
8
0
10
27.574096875000002
20
24.252568750000002
30
0
0
VERTEX
8
0
10
27.568506250000002
20
24.252978125000002
30
0
0
VERTEX
8
0
10
27.560709375000002
20
24.254359375
30
0
0
VERTEX
8
0
10
27.504503125000003
20
24.25798125
30
0
0
VERTEX
8
0
10
27.50190625
20
24.257859375000002
30
0
0
VERTEX
8
0
10
27.5
20
24.258000000000003
30
0
0
VERTEX
8
0
10
22.5
20
24.258000000000003
30
0
0
VERTEX
8
0
10
22.478618750000003
20
24.256812500000002
30
0
0
VERTEX
8
0
10
22.457203125
20
24.25619375
30
0
42
0.13956369316960346
0
VERTEX
8
0
10
22.197025
20
24.1577625
30
0
0
VERTEX
8
0
10
22.192796875000003
20
24.1541125
30
0
0
VERTEX
8
0
10
22.18629375
20
24.149565625
30
0
0
VERTEX
8
0
10
22.1439875
20
24.112378125000003
30
0
0
VERTEX
8
0
10
22.142243750000002
20
24.110465625
30
0
0
VERTEX
8
0
10
22.140790625
20
24.109209375000002
30
0
0
VERTEX
8
0
10
20.890790625
20
22.859209375000002
30
0
0
VERTEX
8
0
10
20.876521875
20
22.8432625
30
0
0
VERTEX
8
0
10
20.861803125
20
22.82766875
30
0
42
0.1395618413384444
0
VERTEX
8
0
10
20.74743125
20
22.574096875000002
30
0
0
VERTEX
8
0
10
20.747021875
20
22.568506250000002
30
0
0
VERTEX
8
0
10
20.745640625
20
22.560709375000002
30
0
0
VERTEX
8
0
10
20.74201875
20
22.504503125
30
0
0
VERTEX
8
0
10
20.742140625
20
22.50190625
30
0
0
VERTEX
8
0
10
20.742
20
22.5
30
0
0
VERTEX
8
0
10
20.742
20
17.710418750000002
30
0
0
VERTEX
8
0
10
17.28958125
20
14.258000000000001
30
0
0
VERTEX
8
0
10
16.25
20
14.258000000000001
30
0
0
VERTEX
8
0
10
16.193762500000002
20
14.254878125000001
30
0
42
0.8789627495303876
0
VERTEX
8
0
10
16.175903125
20
13.24743125
30
0
0
VERTEX
8
0
10
16.25
20
13.242
30
0
0
VERTEX
8
0
10
17.5
20
13.242
30
0
0
SEQEND
0
CIRCLE
8
drills_PTH
10
17.5
20
20
30
0
40
1.651
0
CIRCLE
8
drills_PTH
10
42.5
20
20
30
0
40
1.651
0
CIRCLE
8
drills_PTH
10
21.25
20
13.75
30
0
40
0.65
0
CIRCLE
8
drills_PTH
10
16.25
20
13.75
30
0
40
0.65
0
CIRCLE
8
drills_PTH
10
32.5
20
13.75
30
0
40
0.65
0
CIRCLE
8
drills_PTH
10
27.5
20
13.75
30
0
40
0.65
0
CIRCLE
8
drills_PTH
10
43.75
20
13.75
30
0
40
0.65
0
CIRCLE
8
drills_PTH
10
38.75
20
13.75
30
0
40
0.65
0
CIRCLE
8
drills_PTH
10
24.46
20
18.580000000000002
30
0
40
0.508
0
CIRCLE
8
drills_PTH
10
27.23
20
18.580000000000002
30
0
40
0.508
0
CIRCLE
8
drills_PTH
10
30
20
18.580000000000002
30
0
40
0.508
0
CIRCLE
8
drills_PTH
10
32.77
20
18.580000000000002
30
0
40
0.508
0
CIRCLE
8
drills_PTH
10
35.54
20
18.580000000000002
30
0
40
0.508
0
CIRCLE
8
drills_PTH
10
25.85
20
21.42
30
0
40
0.508
0
CIRCLE
8
drills_PTH
10
28.62
20
21.42
30
0
40
0.508
0
CIRCLE
8
drills_PTH
10
31.380000000000003
20
21.42
30
0
40
0.508
0
CIRCLE
8
drills_PTH
10
34.15
20
21.42
30
0
40
0.508
0
CIRCLE
8
drills_NPTH
10
8.75
20
25
30
0
40
0.17500000000000002
0
CIRCLE
8
drills_NPTH
10
8.75
20
15
30
0
40
0.17500000000000002
0
CIRCLE
8
drills_NPTH
10
51.25
20
15
30
0
40
0.17500000000000002
0
CIRCLE
8
drills_NPTH
10
51.25
20
25
30
0
40
0.17500000000000002
0
ENDSEC
0
EOF